# xmcd CD database file
#
# Track frame offsets:
#	150
#	26397
#	56885
#	80220
#	98475
#	113580
#	131867
#	146040
#	164102
#	193970
#	203827
#
# Disc length: 2886 seconds
#
# Revision: 0
# Processed by: cddbd v1.4PL0 Copyright (c) Steve Scherf et al.
# Submitted via: CDex 1.40Beta9
#
DISCID=a50b440b
DTITLE=Jesse Kalu - Love And Light To Your Path
DYEAR=1997
DGENRE=Native American
TTITLE0=Eagle Wisdom
TTITLE1=Dolphin Swim
TTITLE2=Crystal Sunrise
TTITLE3=Earth Mother
TTITLE4=Twin Souls
TTITLE5=Vortex
TTITLE6=Ancestral Winds
TTITLE7=Seagull Quest
TTITLE8=Canyon Sunset
TTITLE9=Mariann
TTITLE10=Loon Lodge
EXTD=YEAR: 1997 ID3G: 64
EXTT0=
EXTT1=
EXTT2=
EXTT3=
EXTT4=
EXTT5=
EXTT6=
EXTT7=
EXTT8=
EXTT9=
EXTT10=
PLAYORDER=
